<svg xmlns="http://www.w3.org/2000/svg" data-name="Layer 2" viewBox="0 0 100 100"><g data-name="&lt;Group&gt;"><path fill="#6c95a4" d="M76.63 77.3v1.45h-7.72V62.24a18.69 18.69 0 0 1 7.72 15.06zM31.1 62.24v16.51h-7.73V77.3a18.68 18.68 0 0 1 7.73-15.06zm8.9-3.4v7.65a10.05 10.05 0 1 0 20.1 0v-7.65l.56.08q.66.09 1.29.21l.7.17c.4.1.79.21 1.17.34l.69.23.45.19v32.16H35.1V60.06l.44-.19.69-.24q.59-.18 1.17-.33l.7-.17q.65-.12 1.29-.21z"/><path fill="#999" d="M79.45 24.92a10.4 10.4 0 0 1-1.31 5 9.15 9.15 0 0 0-5.77-6.11l-.08-.1L67 18.57a2 2 0 0 0-2-.49c-1.79.52-4.17-.39-6.7-1.36a23.72 23.72 0 0 0-8.38-2 23.67 23.67 0 0 0-8.37 2c-2.53 1-4.92 1.88-6.71 1.36a2 2 0 0 0-2 .49l-5.13 5.13-.09.11a9.2 9.2 0 0 0-5.76 6.11 10.47 10.47 0 0 1-1.31-5c0-9.45 13.21-17.14 29.45-17.14s29.45 7.69 29.45 17.14Z"/><path fill="#f9d4b2" d="M56.05 58.73v7.76a6.05 6.05 0 1 1-12.1 0v-7.76h7ZM68.91 82.75h7.72v9.47h-7.72zM23.37 82.75h7.73v9.47h-7.73zM58.49 29.63a2.79 2.79 0 1 0 2.78 2.79 2.79 2.79 0 0 0-2.78-2.79Zm1.39-5.3h-2.79a2 2 0 0 0 0 4h2.79a2 2 0 1 0 0-4ZM35 22.17c2.69.34 5.41-.7 8-1.71a20.39 20.39 0 0 1 7-1.78 20.33 20.33 0 0 1 7 1.78c2.64 1 5.36 2.05 8 1.71l3.48 3.39a2 2 0 0 0 1.69 1.8 5.12 5.12 0 0 1 2.32 9.12 32.37 32.37 0 0 0 .4-5.13 2 2 0 0 0-4 0 27.71 27.71 0 0 1-2.44 11.5c-3.19 7-9 11.45-15.45 11.88h-2c-6.39-.43-12.23-4.88-15.42-11.85a27.59 27.59 0 0 1-2.47-11.53 2 2 0 0 0-4 0 32.37 32.37 0 0 0 .41 5.13 5.1 5.1 0 0 1 2.32-9.11 2 2 0 0 0 1.69-1.81Zm6.52 7.46a2.79 2.79 0 1 0 2.78 2.79 2.79 2.79 0 0 0-2.78-2.79Zm-3.22-1.3H48v7.86a2 2 0 0 0 4 0v-9.86a2 2 0 0 0-2-2H38.3a2 2 0 0 0 0 4ZM53.39 46.4a2 2 0 0 0-2-2h-2.78a2 2 0 0 0 0 4h2.78a2 2 0 0 0 2-2Z"/><path fill="#634" d="M83.45 24.92c0 4.6-2.25 8.94-6.5 12.58a9 9 0 0 1-5.62 3.82 28.48 28.48 0 0 1-1.24 3.19A25.7 25.7 0 0 1 61.59 55a22.17 22.17 0 0 1 6.18 1.92A22.68 22.68 0 0 1 80.63 77.3v16.92a2 2 0 0 1-2 2H21.37a2 2 0 0 1-2-2V77.3a22.68 22.68 0 0 1 12.86-20.38A22.14 22.14 0 0 1 38.42 55a25.74 25.74 0 0 1-8.48-10.45 29.22 29.22 0 0 1-1.26-3.23 9.08 9.08 0 0 1-5.62-3.81c-4.25-3.64-6.51-8-6.51-12.59C16.55 13.07 31.24 3.78 50 3.78s33.45 9.29 33.45 21.14Zm-5.31 5a10.4 10.4 0 0 0 1.31-5c0-9.45-13.21-17.14-29.45-17.14s-29.45 7.69-29.45 17.14a10.47 10.47 0 0 0 1.31 5 9.2 9.2 0 0 1 5.76-6.11l.09-.11L33 18.57a2 2 0 0 1 2-.49c1.79.52 4.18-.39 6.71-1.36a23.67 23.67 0 0 1 8.37-2 23.72 23.72 0 0 1 8.38 2c2.53 1 4.91 1.88 6.7 1.36a2 2 0 0 1 2 .49l5.25 5.13.08.1a9.15 9.15 0 0 1 5.65 6.11Zm-1.51 62.3v-9.47h-7.72v9.47Zm0-13.47V77.3a18.69 18.69 0 0 0-7.72-15.06v16.51ZM74.5 32.42a5.12 5.12 0 0 0-4.33-5.06 2 2 0 0 1-1.69-1.8L65 22.17c-2.69.34-5.41-.7-8-1.71a20.33 20.33 0 0 0-7-1.78 20.39 20.39 0 0 0-7 1.78c-2.64 1-5.36 2.05-8 1.71l-3.47 3.39a2 2 0 0 1-1.69 1.81 5.1 5.1 0 0 0-2.32 9.11 32.37 32.37 0 0 1-.41-5.13 2 2 0 0 1 4 0 27.59 27.59 0 0 0 2.47 11.53c3.19 7 9 11.42 15.42 11.85h2c6.41-.43 12.26-4.89 15.45-11.88a27.71 27.71 0 0 0 2.44-11.5 2 2 0 0 1 4 0 32.37 32.37 0 0 1-.4 5.13 5.11 5.11 0 0 0 2.01-4.06Zm-9.59 59.8V60.06l-.45-.19-.69-.23c-.38-.13-.77-.24-1.17-.34l-.7-.17q-.63-.12-1.29-.21l-.56-.08v7.65a10.05 10.05 0 1 1-20.1 0v-7.65l-.56.08q-.64.09-1.29.21l-.7.17q-.59.15-1.17.33l-.69.24-.44.19v32.16Zm-8.86-25.73v-7.76H44v7.76a6.05 6.05 0 1 0 12.1 0ZM31.1 92.22v-9.47h-7.73v9.47Zm0-13.47V62.24a18.68 18.68 0 0 0-7.73 15.06v1.45Z"/><path fill="#634" d="M59.88 24.33a2 2 0 1 1 0 4h-2.79a2 2 0 0 1 0-4zm-1.39 5.3a2.79 2.79 0 1 1-2.79 2.79 2.78 2.78 0 0 1 2.79-2.79zm-7.1 14.77a2 2 0 0 1 0 4h-2.78a2 2 0 0 1 0-4zM52 26.33v9.86a2 2 0 0 1-4 0v-7.86h-9.7a2 2 0 0 1 0-4H50a2 2 0 0 1 2 2z"/><path fill="#634" d="M41.52 29.63a2.79 2.79 0 1 1-2.79 2.79 2.78 2.78 0 0 1 2.79-2.79Z"/></g></svg>