<svg xmlns="http://www.w3.org/2000/svg" enable-background="new 0 0 64 64" viewBox="0 0 64 64"><path fill="#764636" d="M52.1,23.8c1.6-0.6,2.7-2.3,2.7-4.5c0-2.3-1.4-4.3-3.3-4.6c0.7-1.3,0.7-3.2-0.1-5c-0.9-1.9-2.6-3.1-4.2-3.3
			c-0.3-1.4-1.2-2.7-2.7-3.6c-1.6-0.9-3.3-1-4.6-0.5c-0.7-0.8-1.7-1.5-2.9-1.8c-2.1-0.5-4.1,0.2-5,1.7c-0.9-1.4-2.9-2.2-5-1.7
			c-1.2,0.3-2.2,1-2.9,1.8C22.7,1.9,21,2,19.4,2.9c-1.5,0.9-2.5,2.2-2.7,3.6c-1.6,0.1-3.2,1.3-4.2,3.3c-0.9,1.8-0.9,3.7-0.1,5
			c-1.8,0.3-3.3,2.3-3.3,4.6c0,2.1,1.2,3.9,2.7,4.5c-1.5,1.1-1.8,3.5-0.8,5.6c0.6,1.2,1.6,2.1,2.7,2.5c-0.1,1.2,0.2,2.5,1,3.6
			c0.9,1.2,2.2,1.9,3.4,2.1c0.1,0.6,0.4,1.2,0.8,1.7c1.5,2,5.8,3,7.5,1.8c1.7,0.5,3.4,0.7,5.3,0.7c1.9,0,3.7-0.3,5.3-0.7
			c1.7,1.2,6,0.3,7.5-1.8c0.4-0.6,0.7-1.2,0.8-1.7c1.2-0.1,2.5-0.9,3.4-2.1c0.8-1.1,1.2-2.4,1-3.6c1.1-0.4,2.1-1.3,2.7-2.5
			C53.9,27.3,53.6,25,52.1,23.8z"/><path fill="#63362b" d="M22.4,40.4c-0.4-0.6-0.7-1.2-0.8-1.7c-1.2-0.1-2.5-0.9-3.4-2.1c-0.8-1.1-1.2-2.4-1-3.6
				c-1.1-0.4-2.1-1.3-2.7-2.5c-1.1-2.1-0.7-4.4,0.8-5.6c-1.6-0.6-2.7-2.3-2.7-4.5c0-2.3,1.4-4.3,3.3-4.6c-0.7-1.3-0.7-3.2,0.1-5
				c0.9-1.9,2.6-3.1,4.2-3.3c0.3-1.4,1.2-2.7,2.7-3.6c1.6-0.9,3.3-1,4.6-0.5C28,2.7,29,2,30.2,1.7c0.4-0.1,0.8-0.1,1.2-0.2
				c-1-1-2.7-1.4-4.4-1c-1.2,0.3-2.2,1-2.9,1.8C22.7,1.9,21,2,19.4,2.9c-1.5,0.9-2.5,2.2-2.7,3.6c-1.6,0.1-3.2,1.3-4.2,3.3
				c-0.9,1.8-0.9,3.7-0.1,5c-1.8,0.3-3.3,2.3-3.3,4.6c0,2.1,1.2,3.9,2.7,4.5c-1.5,1.1-1.8,3.5-0.8,5.6c0.6,1.2,1.6,2.1,2.7,2.5
				c-0.1,1.2,0.2,2.5,1,3.6c0.9,1.2,2.2,1.9,3.4,2.1c0.1,0.6,0.4,1.2,0.8,1.7c0.9,1.2,2.7,2,4.4,2.2C23.1,41.2,22.7,40.9,22.4,40.4z
				"/><path fill="#c99861" d="M50.2,47.6L36.2,44v-8.8h-8.4V44l-13.9,3.6c-3.6,1.5-5.9,5-5.9,8.9v4.9c0,1.2,1,2.2,2.2,2.2h43.8
			c1.2,0,2.2-1,2.2-2.2v-4.9C56.1,52.6,53.7,49.1,50.2,47.6z"/><path fill="#b27a49" d="M27.8 40.5V44l3.2 3.5v-6.2C29.9 41.2 28.8 40.9 27.8 40.5zM47.9 24.6c0 2.6-2.1 6-3.6 6s-2.5-2.1-2.5-4.7 0-4.4 1.5-4.7C45.7 20.8 47.9 22 47.9 24.6z"/><path fill="#c99861" d="M44.2,28.9c-0.3-0.3-0.7-1.2-0.7-2.9c0-0.9,0-2.5,0.2-3c0.2,0,0.4,0,0.5,0c0.7,0,1.8,0.2,1.8,1.8
												C46.1,26.3,44.9,28.4,44.2,28.9z"/><path fill="#b27a49" d="M16.1,24.6c0,2.6,2.1,6,3.6,6c1.5,0,2.5-2.1,2.5-4.7s0-4.4-1.5-4.7C18.3,20.8,16.1,22,16.1,24.6z"/><path fill="#c99861" d="M19.8,28.9c-0.7-0.5-1.9-2.6-1.9-4.2c0-1.5,1.1-1.8,1.8-1.8c0.2,0,0.4,0,0.5,0
												c0.2,0.5,0.2,2.1,0.2,3C20.5,27.6,20,28.6,19.8,28.9z"/><path fill="#c99861" d="M44.5,21.2c0,0-1-2.3-1.1-3.1c-0.7-4.7-5-8.8-9.8-8.7l-3.8,0.1c-4.7,0.1-8.8,4.1-9.5,8.8
											c-0.1,1-0.4,2-1,2.9l0,0l0.2,10.1c0.1,2.9,1.6,5.5,4,7l2.3,1.4c4,2.4,9,2.3,12.8-0.2l2.2-1.5c2.4-1.6,3.8-4.3,3.7-7.1
											L44.5,21.2z"/><path fill="#d1a37a" d="M32.8,13c0,0,5.5-1.1,7.4,3.2c1.1,2.5,1.8,8.5,2.1,13c0.2,3.4-1.6,6.6-4.7,8.2
											c-1.9,0.9-4.5,2.1-4.5,1.3C33.5,27.7,32.8,13,32.8,13z"/><path fill="#b27a49" d="M34 29.2l-1.8-3.7-1.4 4.2c.1.6 1.5.7 1.5.7l1-.1C33.8 30.4 34.2 29.8 34 29.2zM26.8 38.2c-2.4-1.5-3.9-4.1-4-7L22.5 18c-.1-2.7.9-5.2 2.6-7.1-2.5 1.6-4.3 4.3-4.7 7.3-.1 1-.4 2-1 2.9l0 0 .2 10.1c.1 2.9 1.6 5.5 4 7l2.3 1.4c2.4 1.5 5.1 2 7.8 1.6-1.6-.2-3.2-.8-4.6-1.6L26.8 38.2z"/><circle cx="25.6" cy="23.1" r="1.5" fill="#b27a49"/><circle cx="25.6" cy="23.1" r="1.2" fill="#243f51"/><circle cx="38.4" cy="23.1" r="1.5" fill="#b27a49"/><circle cx="38.4" cy="23.1" r="1.2" fill="#243f51"/><path fill="#63aec0" d="M50.2,47.6L36.2,44L32,48.6L27.8,44l-13.9,3.6c-3.6,1.5-5.9,5-5.9,8.9v4.9c0,1.2,1,2.2,2.2,2.2h43.8
			c1.2,0,2.2-1,2.2-2.2v-4.9C56.1,52.6,53.7,49.1,50.2,47.6z"/><path fill="#5a9e9e" d="M11.2,62.9v-4.9c0-3.9,2.3-7.4,5.9-8.9l12.5-3.2L27.8,44l-13.9,3.6c-3.6,1.5-5.9,5-5.9,8.9v4.9
				c0,1.2,1,2.2,2.2,2.2h1.1C11.2,63.4,11.2,63.2,11.2,62.9z"/><path fill="#52918d" d="M23.8 45l4-1 4.2 4.6-3.1 1.8c-.9.5-2.1.2-2.6-.7L23.8 45zM40.2 45l-4-1L32 48.6l3.1 1.8c.9.5 2.1.2 2.6-.7L40.2 45z"/><path fill="#5a9e9e" d="M32,48.6v7.9c0,0.5,0.4,1,1,1h0.5v-7.9L32,48.6z"/><path fill="#52918d" d="M47.7,58.8l-2.3,1.4c-0.2,0.1-0.3,0.1-0.5,0l-2.6-1.4c-0.2-0.1-0.3-0.3-0.3-0.5v-3.6c0-0.3,0.2-0.5,0.5-0.5
			h4.9c0.3,0,0.5,0.2,0.5,0.5v3.6C47.9,58.5,47.8,58.7,47.7,58.8z"/><path fill="#243f51" d="M36.6 21.4c.1-.1 1.6-1.7 3.9 0 .1.1.2.1.2.1.1 0 .2-.1.3-.2.1-.2.1-.4-.1-.5-2.2-1.7-4.2-.7-4.9 0-.1.2-.1.4 0 .5C36.3 21.5 36.5 21.5 36.6 21.4zM27.9 20.9c-.7-.8-2.7-1.7-4.9 0-.2.1-.2.4-.1.5.1.1.2.2.3.2.1 0 .2 0 .2-.1 2.2-1.7 3.8-.1 3.9 0 .1.2.4.2.5 0C28 21.3 28.1 21 27.9 20.9zM36.1 34.3c.1-.2.1-.5-.1-.6-.2-.1-.5-.1-.6.1 0 0-.9 1.4-3.4 1.4-2.5 0-3.3-1.3-3.4-1.4-.1-.2-.4-.3-.6-.2-.2.1-.3.4-.2.6 0 .1 1.1 1.8 4.2 1.8C35 36.1 36.1 34.4 36.1 34.3zM33.8 36.7c-.1-.2-.3-.3-.6-.3-.4.2-.8.2-1.3.2-.6 0-1.1-.1-1.6-.4-.2-.1-.5 0-.6.2-.1.2 0 .5.2.6.6.3 1.3.5 2 .5.6 0 1.1-.1 1.6-.3C33.8 37.2 33.9 36.9 33.8 36.7zM32.2 30.9C32.2 30.9 32.2 30.9 32.2 30.9 32.2 30.9 32.2 30.9 32.2 30.9l1.1-.1c.4 0 .8-.2 1.1-.6.2-.4.3-.8.1-1.2l-1.8-3.7c-.1-.2-.4-.3-.6-.2-.2.1-.3.4-.2.6l1.8 3.7c.1.2 0 .3 0 .4S33.4 30 33.2 30c0 0 0 0 0 0l-1 .1c-.5 0-1-.2-1-.3 0-.2-.3-.4-.5-.4-.2 0-.4.3-.4.5C30.4 30.8 31.9 30.9 32.2 30.9z"/><path fill="#243f51" d="M50.3,47.2C50.3,47.2,50.3,47.2,50.3,47.2l-10-2.6c0,0,0,0,0,0l-3.6-0.9v-1.9c0.2,0,0.4-0.1,0.6-0.1
				c0.6,0.3,1.3,0.5,2.2,0.5c2.1,0,4.7-1,5.8-2.5c0.4-0.5,0.7-1.1,0.8-1.6c1.3-0.2,2.5-1,3.4-2.2c0.8-1.1,1.2-2.3,1.2-3.6
				c1.1-0.5,2.1-1.4,2.7-2.6c1-2,0.8-4.3-0.4-5.6c1.4-0.8,2.4-2.6,2.4-4.6c0-2.3-1.3-4.3-3.1-4.9c0.6-1.4,0.4-3.2-0.4-4.9
				c-0.9-1.9-2.5-3.2-4.2-3.5c-0.4-1.4-1.4-2.8-2.9-3.6c-1.5-0.9-3.3-1.1-4.7-0.6c-0.7-0.8-1.8-1.4-2.9-1.7c-2-0.5-4,0.1-5.1,1.4
				c-1.1-1.3-3.1-1.8-5.1-1.4c-1.2,0.3-2.2,0.9-2.9,1.7c-1.5-0.5-3.2-0.2-4.7,0.6c-1.4,0.8-2.5,2.2-2.9,3.6
				c-1.7,0.3-3.3,1.6-4.2,3.5c-0.8,1.6-0.9,3.5-0.4,4.9c-1.8,0.6-3.1,2.6-3.1,4.9c0,2,1,3.8,2.4,4.6c-1.2,1.4-1.4,3.6-0.4,5.6
				c0.6,1.2,1.6,2.1,2.7,2.6c0,1.2,0.4,2.5,1.2,3.6c0.9,1.2,2.1,2,3.4,2.2c0.2,0.5,0.4,1.1,0.8,1.6c1.6,2.1,5.9,3.2,7.9,2
				c0.2,0.1,0.4,0.1,0.6,0.1v1.9l-3.6,0.9c0,0,0,0,0,0l-10,2.6c0,0,0,0-0.1,0c-3.7,1.6-6.2,5.2-6.2,9.3v4.9c0,1.4,1.2,2.6,2.6,2.6
				h43.8c1.4,0,2.6-1.2,2.6-2.6v-4.9C56.5,52.4,54.1,48.8,50.3,47.2z M39.5,45.3l-2.2,4.1c-0.2,0.3-0.5,0.6-0.9,0.7
				c-0.4,0.1-0.8,0.1-1.1-0.1l-2.6-1.5l3.7-4L39.5,45.3z M32.4,49.3l0.6,0.4V57H33c-0.3,0-0.5-0.2-0.5-0.5V49.3z M32,47.9l-3.8-4.1
				v-2.5c0,0,0,0,0,0v-0.2c1.3,0.4,2.6,0.6,3.9,0.6c1.2,0,2.5-0.2,3.7-0.5v0.1c0,0,0,0,0,0v2.5L32,47.9z M26.8,40.7
				c-0.1,0-0.3,0-0.4,0.1c-0.7,0.5-2,0.6-3.5,0.2c-1.5-0.3-2.8-1.1-3.4-1.9c-0.4-0.5-0.6-1-0.7-1.6c0-0.2-0.2-0.3-0.4-0.3
				c-1.2-0.1-2.3-0.8-3.1-1.9c-0.7-1-1.1-2.2-1-3.3c0-0.2-0.1-0.4-0.3-0.5c-1-0.4-1.9-1.2-2.5-2.3c-0.9-1.8-0.7-4,0.6-5
				c0.1-0.1,0.2-0.3,0.2-0.4c0-0.2-0.1-0.3-0.3-0.3c-1.4-0.5-2.4-2.2-2.4-4c0-2.1,1.2-3.9,2.9-4.2c0.1,0,0.3-0.1,0.3-0.2
				c0.1-0.1,0.1-0.3,0-0.4c-0.7-1.2-0.6-3,0.2-4.6c0.8-1.7,2.3-2.9,3.8-3c0.2,0,0.4-0.2,0.4-0.4c0.2-1.3,1.2-2.5,2.5-3.3
				c1.4-0.8,3-1,4.3-0.5c0.2,0.1,0.4,0,0.5-0.1C25.1,1.9,26,1.3,27.1,1c1.8-0.4,3.7,0.2,4.5,1.5c0.1,0.1,0.2,0.2,0.4,0.2
				c0.2,0,0.3-0.1,0.4-0.2c0.8-1.3,2.7-1.9,4.5-1.5c1.1,0.3,2,0.8,2.7,1.6c0.1,0.2,0.3,0.2,0.5,0.1c1.3-0.5,2.9-0.3,4.3,0.5
				c1.3,0.8,2.3,2,2.5,3.3c0,0.2,0.2,0.3,0.4,0.4c1.5,0.1,2.9,1.3,3.8,3c0.8,1.6,0.8,3.3,0.2,4.6c-0.1,0.1-0.1,0.3,0,0.4
				c0.1,0.1,0.2,0.2,0.3,0.2c1.6,0.3,2.9,2.1,2.9,4.2c0,1.9-1,3.5-2.4,4c-0.2,0.1-0.3,0.2-0.3,0.3s0,0.3,0.2,0.4
				c1.3,1,1.6,3.2,0.6,5c-0.6,1.1-1.5,1.9-2.5,2.3c-0.2,0.1-0.3,0.3-0.3,0.5c0.1,1.1-0.2,2.3-1,3.3c-0.8,1.1-2,1.8-3.1,1.9
				c-0.2,0-0.3,0.2-0.4,0.3c-0.1,0.5-0.4,1.1-0.7,1.6C43,41,39,41.7,37.6,40.7c-0.1,0-0.1-0.1-0.2-0.1c0.6-0.3,1.1-0.6,1.6-0.9
				l2.2-1.5c2.5-1.6,4-4.4,3.9-7.4c1.6-0.9,3.2-3.9,3.2-6.2c0-2.2-1.4-3.7-3.5-3.9c-0.3-0.8-0.9-2.2-0.9-2.7
				c-0.3-2.4-1.6-4.7-3.5-6.4c-2-1.8-4.3-2.7-6.8-2.7L29.8,9c-4.8,0.1-9.2,4.2-9.9,9.2c-0.1,0.9-0.4,1.8-0.8,2.6
				c-2,0.3-3.4,1.8-3.4,3.9c0,2.5,1.8,5.8,3.5,6.4l0,0.2c0.1,3,1.6,5.8,4.2,7.3l2.3,1.4c0.5,0.3,0.9,0.5,1.4,0.8
				C27,40.7,26.9,40.7,26.8,40.7z M44.9,21.6c1.5,0.2,2.5,1.4,2.5,3c0,1-0.4,2.3-1,3.5c-0.4,0.7-0.9,1.3-1.3,1.7L44.9,21.6z
				 M19.1,30c-0.5-0.3-1-0.9-1.4-1.7c-0.7-1.2-1.1-2.6-1.1-3.7c0-1.9,1.2-2.7,2.4-3L19.1,30z M26.1,39.2l-2.3-1.4
				c-2.3-1.4-3.7-3.9-3.8-6.6l0-0.6c0,0,0,0,0,0l-0.2-9.4c0.5-0.9,0.8-1.9,1-3c0.6-4.5,4.7-8.3,9-8.4l3.8-0.1c2.2,0,4.4,0.8,6.1,2.4
				c1.7,1.6,2.9,3.7,3.2,5.9c0.1,0.8,0.9,2.7,1.1,3.1l0.2,9.4c0,0,0,0,0,0l0,0.2c0.1,2.7-1.3,5.2-3.5,6.7L38.5,39
				C34.8,41.5,29.9,41.5,26.1,39.2z M27.6,44.5l3.7,4L28.7,50c-0.3,0.2-0.7,0.3-1.1,0.1c-0.4-0.1-0.7-0.4-0.9-0.7l-2.2-4.1
				L27.6,44.5z M55.6,61.4c0,1-0.8,1.7-1.7,1.7H10.1c-1,0-1.7-0.8-1.7-1.7v-4.9c0-3.7,2.2-7,5.6-8.5l9.6-2.5l2.4,4.3
				c0.3,0.6,0.8,1,1.4,1.1c0.2,0.1,0.4,0.1,0.6,0.1c0.4,0,0.8-0.1,1.2-0.3l2.4-1.4v7.1c0,0.8,0.6,1.4,1.4,1.4h0.5
				c0.2,0,0.4-0.2,0.4-0.4v-7.2l0.9,0.5c0.4,0.2,0.8,0.3,1.2,0.3c0.2,0,0.4,0,0.6-0.1c0.6-0.2,1.1-0.6,1.4-1.1l2.4-4.3L50,48
				c3.4,1.5,5.6,4.8,5.6,8.5V61.4z"/><path fill="#243f51" d="M47.4,53.8h-4.9c-0.5,0-1,0.4-1,1v3.6c0,0.4,0.2,0.7,0.5,0.9l2.6,1.4c0.1,0.1,0.3,0.1,0.5,0.1
				c0.2,0,0.3,0,0.5-0.1l2.3-1.4c0.3-0.2,0.5-0.5,0.5-0.8v-3.6C48.4,54.2,48,53.8,47.4,53.8z M47.5,58.4
				C47.5,58.4,47.5,58.4,47.5,58.4C47.5,58.4,47.5,58.4,47.5,58.4l-2.3,1.4c0,0,0,0-0.1,0l-2.6-1.4c0,0,0,0,0-0.1v-3.6
				c0,0,0-0.1,0.1-0.1h4.9c0,0,0.1,0,0.1,0.1V58.4z"/><path fill="#875144" d="M31.4,5.3c0,0,4.9-2.5,6.6-0.9s3.4-0.6,5.1,1.9c1.6,2.4,3.8-0.1,5.3,3.7s-0.5,5.5,0.9,6.9
			c1.4,1.4,0.4,5,0.4,5s-2-2-3.7-3.2c-1.7-1.2,0.6-2.6-1.7-5.3S36.2,5.7,31.4,5.3z"/><path fill="#eff5ff" d="M25.1 23.2c-.2 0-.4-.2-.4-.4 0-.2.2-.4.4-.4.2 0 .4.2.4.4C25.5 23.1 25.4 23.2 25.1 23.2zM37.9 23.2c-.2 0-.4-.2-.4-.4 0-.2.2-.4.4-.4.2 0 .4.2.4.4C38.3 23.1 38.1 23.2 37.9 23.2z"/></svg>