<svg xmlns="http://www.w3.org/2000/svg" enable-background="new 0 0 64 64" viewBox="0 0 64 64"><path fill="#465361" d="M49.4,15.3c0-6.9-4.6-12.8-11-14.4c-1.6-0.4-3.2-0.5-4.9-0.4l-0.2,0c-0.9,0.1-1.7,0.1-2.6,0l-0.5,0
							c-1.6-0.1-3.2,0-4.8,0.4c-6.3,1.7-10.8,7.5-10.8,14.4v7.1c0,8.5,2.2,16.9,6.4,24.3l2.1,3.8h17.6l2.1-3.8
							c4.2-7.4,6.4-15.8,6.4-24.3V15.3z"/><path fill="#35424d" d="M18.2,22.4v-7.1c0-6.9,4.5-12.8,10.8-14.4c0.6-0.1,1.2-0.3,1.7-0.3c0,0,0,0-0.1,0l-0.5,0
								c-1.6-0.1-3.2,0-4.8,0.4c-6.3,1.7-10.8,7.5-10.8,14.4v7.1c0,8.5,2.2,16.9,6.4,24.3l2.1,3.8h3.6l-2.1-3.8
								C20.4,39.3,18.2,31,18.2,22.4z"/><path fill="#eac49c" d="M51.5,47.7l-15.1-4.1v-9.3h-8.7v9.3l-15.1,4.1c-3.6,1.7-6,5.7-6,10v3.3c0,1.3,1.1,2.4,2.4,2.4H55
							c1.3,0,2.4-1.1,2.4-2.4v-3.3C57.5,53.4,55.1,49.5,51.5,47.7z"/><path fill="#d4a680" d="M7.1 62.7C7.1 62.7 7.2 62.8 7.1 62.7 7.2 62.8 7.1 62.7 7.1 62.7zM6.5 61.1c0 .1 0 .2 0 .2C6.5 61.3 6.5 61.2 6.5 61.1zM7.3 62.9c0 0 .1.1.1.1C7.4 62.9 7.3 62.9 7.3 62.9zM24 46.6l4-1.1c.7-.2 1.2-.8 1.2-1.6v-9.6h-1.6v9.3l-4 1.1L24 46.6z"/><polygon fill="#d4a680" points="8.2 63.4 8.2 63.4 8.2 63.4"/><path fill="#d4a680" d="M7.9 63.3C7.9 63.3 7.9 63.3 7.9 63.3 7.9 63.3 7.9 63.3 7.9 63.3zM7.7 63.2C7.7 63.2 7.7 63.2 7.7 63.2 7.7 63.2 7.7 63.2 7.7 63.2zM7.5 63.1C7.5 63.1 7.5 63.1 7.5 63.1 7.5 63.1 7.5 63.1 7.5 63.1zM6.7 61.9c0 .1 0 .1.1.2C6.7 62 6.7 61.9 6.7 61.9zM7 62.5C7 62.6 7 62.6 7 62.5 7 62.6 7 62.6 7 62.5zM6.6 61.4c0 .1 0 .1 0 .2C6.6 61.5 6.6 61.5 6.6 61.4zM6.6 61.7c0 0 0 .1 0 .1C6.6 61.7 6.6 61.7 6.6 61.7zM6.7 62.1c0 .1.1.1.1.2C6.8 62.2 6.8 62.1 6.7 62.1zM6.9 62.3c0 0 0 .1.1.1C6.9 62.4 6.9 62.4 6.9 62.3zM15.8 21.1c0 4.5 2.2 5.3 3.7 5.3s2.6-1.8 2.6-4 0-3.7-1.6-4C18.1 18 15.8 18.9 15.8 21.1z"/><path fill="#eac49c" d="M19.6,24.7c-0.6,0-2.1,0-2.1-3.7c0-0.3,0.1-0.6,0.3-0.7c0.3-0.2,0.9-0.4,1.6-0.4c0.3,0,0.6,0,0.9,0.1
								c0,0,0,0,0,0c0.2,0.4,0.2,1.7,0.2,2.4C20.5,23.8,19.9,24.7,19.6,24.7z"/><path fill="#d4a680" d="M48.2,21.1c0,4.5-2.2,5.3-3.7,5.3s-2.6-1.8-2.6-4s0-3.7,1.6-4C45.9,18,48.2,18.9,48.2,21.1z"/><path fill="#eac49c" d="M44.4,24.7c-0.4,0-0.9-0.9-0.9-2.3c0-0.7,0-2,0.2-2.4c0,0,0,0,0,0C44,20,44.3,20,44.6,20
								c0.7,0,1.2,0.1,1.6,0.4c0.2,0.2,0.3,0.4,0.3,0.7C46.5,24.7,45,24.7,44.4,24.7z"/><path fill="#eac49c" d="M43.3,16.7C40.7,16.2,32,13.5,32,5.1c0,8.4-8.7,11.1-11.3,11.6c-0.8,0.2-1.4,0.9-1.4,1.7v8.4
					c0,0.6,0,1.1,0.1,1.7v0c0.4,2.5,1.5,4.9,3.3,6.8l2.2,2.2c2,2,4.5,3,7.1,3c2.6,0,5.2-1,7.1-3l2.2-2.2c1.8-1.8,3-4.2,3.3-6.8v0
					c0.1-0.6,0.1-1.1,0.1-1.7l0-8.4C44.8,17.6,44.2,16.9,43.3,16.7z"/><path fill="#f1cdad" d="M34.1,15.7c1,0.7,2.8,1.7,5.5,2.4c1.4,0.4,2.3,1.6,2.3,3c0,1.8,0.1,4.4,0.3,6.9c0.3,3.5-1.6,6.9-4.8,8.4
					c-1.9,1-4.6,2.2-4.6,1.3c0.2-8.7,0.2-17.8,0.2-21.5C32.9,15.7,33.6,15.3,34.1,15.7z"/><path fill="#d4a680" d="M28.4,39.3L26.3,37c-1.8-1.8-3-4.2-3.3-6.8v0c-0.1-0.6-0.1-1.1-0.1-1.7V19c0-0.8,0.6-1.5,1.4-1.7
					c1.7-0.3,6.1-3.1,8.9-7.4C32.4,8.6,32,7,32,5.1c0,8.4-8.7,11.1-11.3,11.6c-0.8,0.2-1.4,0.9-1.4,1.7v8.4c0,0.6,0,1.1,0.1,1.7l0,0
					c0.4,2.5,1.5,4.9,3.3,6.8l2.2,2.2c1.3,1.4,2.9,2.3,4.7,2.7C29.1,39.9,28.8,39.6,28.4,39.3z"/><path fill="#dc6a63" d="M51.5,47.7l-11.1-3l-0.5,2.4c-0.5,2.2-2.4,3.8-4.6,3.8h-6.5c-2.2,0-4.2-1.6-4.6-3.8l-0.5-2.4l-11.1,3
					c-3.6,1.7-6,5.7-6,10v3.3c0,1.3,1.1,2.4,2.4,2.4H55c1.3,0,2.4-1.1,2.4-2.4v-3.3C57.5,53.4,55.1,49.5,51.5,47.7z"/><path fill="#c45353" d="M10.1,58.8c0-4.4,2.4-8.3,6-10l7.9-2.1l-0.4-1.9l-11.1,3c-3.6,1.7-6,5.7-6,10v3.3c0,1.3,1.1,2.4,2.4,2.4
						h1.2V58.8z"/><path fill="#63aec0" d="M22,47.6c0.7,3.2,3.5,5.5,6.8,5.5h6.5c3.3,0,6.1-2.3,6.8-5.5l0.5-2.3l-2.2-0.6l-0.5,2.4
						c-0.5,2.2-2.4,3.8-4.6,3.8h-6.5c-2.2,0-4.2-1.6-4.6-3.8l-0.5-2.4l-2.1,0.6L22,47.6z"/><polygon fill="#5ba0a7" points="21.9 47.2 24 46.6 23.6 44.7 21.6 45.3"/><path fill="#e5912d" d="M44.4,63.6c3.2-10.3,7.1-15.8,7.1-15.8l-11.1-3C31.8,50,27.2,57.2,24.8,63.6H44.4z"/><path fill="#dd7c22" d="M49.6 47.2c-1 1.6-4.4 7.1-7.2 16.3h2c3.2-10.3 7.1-15.8 7.1-15.8L49.6 47.2zM42.7 45.4l-2.3-.6C31.8 50 27.2 57.2 24.8 63.6h2.5C29.9 57.3 34.6 50.6 42.7 45.4z"/><path fill="#e8a156" d="M38.6,49.9c0,0,2.6-3.1,4.3-3.2c1.7-0.1,4.4,1.3,4.6,1.6s-3,5.4-4.5,8.5c-1.5,3-2.4,6.3-2.4,6.3
				s-1.5,0.2-1.3-1.3s-1-3.2-2.7-1.7c-1.7,1.6-4.1,2.9-4.4,2c-0.3-0.8-2.2-1.2-2.2-1.2S35.6,52.1,38.6,49.9z"/><path fill="#d4a680" d="M30.7,28.7c0,0,1.2,0.6,2.4,0.2c0.3-0.1,0.5-0.6,0.3-0.9c-0.5-0.8-1.4-2.4-1.4-4.3L30.7,28.7z"/><g><circle cx="25.4" cy="22.9" r="1.6" fill="#d4a680"/><circle cx="25.4" cy="22.9" r="1.3" fill="#243f51"/><path fill="#eff5ff" d="M25,23c-0.2,0-0.4-0.2-0.4-0.4c0-0.2,0.2-0.4,0.4-0.4c0.2,0,0.4,0.2,0.4,0.4C25.4,22.8,25.2,23,25,23z"/><path fill="#d4a680" d="M38.6,24.5c-0.9,0-1.6-0.7-1.6-1.6c0-0.9,0.7-1.6,1.6-1.6s1.6,0.7,1.6,1.6
							C40.1,23.8,39.4,24.5,38.6,24.5z"/><circle cx="38.6" cy="22.9" r="1.3" fill="#243f51"/><path fill="#eff5ff" d="M38.2,23c-0.2,0-0.4-0.2-0.4-0.4c0-0.2,0.2-0.4,0.4-0.4c0.2,0,0.4,0.2,0.4,0.4
							C38.6,22.8,38.4,23,38.2,23z"/></g><ellipse cx="32" cy="12.4" fill="#dc6a63" rx=".9" ry="1.5"/><g><path fill="#243f51" d="M30.5 29.1c0 0 .8.4 1.7.4.3 0 .7-.1 1-.2.3-.1.5-.3.6-.6.1-.3 0-.6-.1-.8-.5-.7-1.3-2.3-1.3-4.1 0-.2-.2-.4-.4-.4-.2 0-.4.2-.4.4 0 2 .9 3.7 1.4 4.5 0 .1 0 .1 0 .2 0 0 0 .1-.1.1-1 .4-2-.2-2.1-.2-.2-.1-.4 0-.5.2C30.3 28.8 30.3 29 30.5 29.1zM27.3 20.6c-.1 0-1.9-.8-4.6.2-.2.1-.3.3-.2.5.1.2.2.3.4.3 0 0 .1 0 .1 0 2.4-.9 4-.2 4.1-.2.2.1.4 0 .5-.2C27.6 20.9 27.5 20.7 27.3 20.6zM36.9 21.3c0 0 1.7-.7 4.1.2 0 0 .1 0 .1 0 .2 0 .3-.1.4-.3.1-.2 0-.4-.2-.5-2.7-1-4.5-.2-4.6-.2-.2.1-.3.3-.2.5C36.5 21.3 36.8 21.4 36.9 21.3z"/><path fill="#243f51" d="M51.7,47.3C51.6,47.3,51.6,47.3,51.7,47.3l-2-0.5c0,0,0,0,0,0l-5.4-1.5c3.7-7,5.6-15,5.6-22.9v-7.1
			c0-7-4.7-13.1-11.4-14.8c-1.6-0.4-3.3-0.5-5-0.4l-0.2,0c-0.8,0.1-1.7,0.1-2.5,0l-0.5,0c-1.7-0.1-3.4,0-4.9,0.4
			c-3.2,0.8-6,2.7-8,5.4c-2,2.7-3.1,6-3.1,9.5v7.1c0,7.9,1.9,15.8,5.6,22.9l-7.4,2c0,0,0,0-0.1,0c-3.8,1.8-6.3,5.9-6.3,10.4v3.3
			C6.1,62.7,7.4,64,9,64h15.8c0,0,0,0,0,0c0,0,0,0,0,0h2.4c0,0,0,0,0,0c0,0,0,0,0,0h15.1c0,0,0,0,0,0c0,0,0,0,0,0h2c0,0,0,0,0,0
			c0,0,0,0,0,0H55c1.6,0,2.9-1.3,2.9-2.9v-3.3C57.9,53.2,55.5,49.1,51.7,47.3z M15.1,22.4v-7.1c0-3.3,1-6.4,2.9-8.9
			c1.9-2.5,4.5-4.3,7.5-5.1c1.5-0.4,3-0.5,4.6-0.4l0.5,0c0.9,0.1,1.8,0.1,2.7,0l0.2,0c1.6-0.2,3.2,0,4.7,0.3
			c6.3,1.6,10.7,7.4,10.7,14v7.1c0,7.9-1.9,15.7-5.6,22.7L42.8,45c0,0,0,0,0,0l-6-1.6v-3.5c1-0.5,1.9-1.2,2.7-2l2.2-2.2
			c1.9-1.9,3.1-4.4,3.4-7c0.1-0.6,0.1-1.2,0.1-1.8v0c0.9-0.1,1.6-0.6,2.2-1.2c0.8-1,1.2-2.5,1.2-4.5c0-1.8-1.4-3-3.5-3.2
			c-0.2-0.8-0.9-1.4-1.7-1.6c-0.6-0.1-3.7-0.8-6.5-2.8c-3-2.1-4.5-4.9-4.5-8.4c0-0.2-0.2-0.4-0.4-0.4c-0.2,0-0.4,0.2-0.4,0.4
			c0,3.4-1.5,6.3-4.5,8.4c-2.8,2-5.9,2.6-6.5,2.8c-0.8,0.2-1.5,0.8-1.7,1.6c-2.1,0.2-3.5,1.4-3.5,3.2c0,2,0.4,3.5,1.2,4.5
			c0.6,0.7,1.3,1.1,2.2,1.2v0c0,0.6,0,1.2,0.1,1.8c0.4,2.7,1.6,5.1,3.4,7l2.2,2.2c0.8,0.8,1.7,1.5,2.7,2v3.5l-6.5,1.8
			C17,38.1,15.1,30.3,15.1,22.4z M28.8,50.5c-2,0-3.8-1.4-4.2-3.4l-0.4-2l3.6-1c0.2-0.1,0.3-0.2,0.3-0.4v-3.5
			c1.2,0.5,2.6,0.8,3.9,0.8c1.4,0,2.7-0.3,3.9-0.8v3.5c0,0.2,0.1,0.4,0.3,0.4l3,0.8c-2.5,1.6-4.8,3.5-6.8,5.6H28.8z M31.6,51.4
			c-0.4,0.4-0.8,0.9-1.1,1.3h-1.7c-3.1,0-5.7-2.2-6.4-5.2l-0.3-1.9l1.2-0.3l0.4,2c0.5,2.4,2.6,4.1,5.1,4.1H31.6z M25.2,37.2L23,35
			c-1.7-1.8-2.8-4-3.2-6.5c-0.1-0.5-0.1-1.1-0.1-1.6v-0.4c0,0,0,0,0,0v-8c0,0,0,0,0-0.1l0,0c0,0,0,0,0,0c0-0.6,0.5-1,1-1.2
			c0.6-0.1,3.9-0.8,6.8-2.9c2.3-1.6,3.7-3.6,4.4-5.9c0.7,2.3,2.2,4.3,4.4,5.9c2.9,2.1,6.2,2.8,6.8,2.9c0.6,0.1,1,0.6,1,1.2
			c0,0,0,0,0,0l0,0c0,0,0,0,0,0.1v8.4c0,0.5,0,1.1-0.1,1.6c-0.3,2.5-1.5,4.7-3.2,6.5l-2.2,2.2c-0.8,0.8-1.6,1.4-2.6,1.9
			c0,0-0.1,0-0.1,0.1c-1.3,0.6-2.7,0.9-4.1,0.9c-1.4,0-2.8-0.3-4.1-0.9c0,0-0.1,0-0.1-0.1C26.8,38.6,25.9,38,25.2,37.2z M45.2,25.9
			v-7.1c2.3,0.2,2.5,1.8,2.5,2.3C47.7,23.9,46.9,25.5,45.2,25.9z M18.8,18.8v7.1c-1.7-0.4-2.5-2-2.5-4.8
			C16.3,20.6,16.5,19,18.8,18.8z M24.5,63.1H9c-1.1,0-2-0.9-2-2v-3.3c0-4.2,2.2-8,5.7-9.6l7.8-2.1c0,0,0,0,0,0l0.7-0.2l0.3,1.9
			c0,0,0,0,0,0c0.7,3.4,3.8,5.9,7.2,5.9h1C27.6,56.5,25.9,59.6,24.5,63.1z M27,63.1h-1.5c1.4-3.5,3.3-6.7,5.5-9.6
			c0,0,0.1-0.1,0.1-0.1c0.6-0.7,1.2-1.4,1.8-2.1c0,0,0.1-0.1,0.1-0.1c2.2-2.3,4.6-4.2,7.4-6l1.2,0.3C35.1,50,30.1,55.9,27,63.1z
			 M42,63.1H27.9c3.2-7.2,8.2-13,14.8-17.3l0.7,0.2c0,0,0,0,0,0l5.4,1.5C47.6,49.5,44.6,54.8,42,63.1z M44,63.1h-1.1
			c2.7-8.4,5.7-13.6,6.8-15.4l1,0.3c-0.4,0.6-1.1,1.8-2,3.6C47.5,54,45.7,57.9,44,63.1z M57,61.1c0,1.1-0.9,2-2,2H45
			c1.6-5,3.3-8.8,4.5-11.1c1-1.9,1.8-3.1,2.1-3.7c3.3,1.7,5.4,5.4,5.4,9.5V61.1z"/><path fill="#243f51" d="M32 14.3c.7 0 1.3-.8 1.3-1.9 0-1.1-.6-1.9-1.3-1.9-.7 0-1.3.8-1.3 1.9C30.7 13.5 31.3 14.3 32 14.3zM32 11.4c.1 0 .4.4.4 1s-.3 1-.4 1c-.1 0-.4-.4-.4-1S31.9 11.4 32 11.4zM28.7 34.1c.8.4 2 .7 3.3.7 3.1 0 4.2-1.4 4.2-1.4.2-.2.1-.5-.1-.6-.2-.2-.5-.1-.6.1 0 0-.9 1.1-3.5 1.1-2.7 0-3.5-1-3.5-1.1-.1-.2-.4-.3-.6-.1-.2.1-.3.4-.1.6C27.8 33.3 28 33.7 28.7 34.1zM33.6 35.1c-.5.1-1 .2-1.6.2-.6 0-1.2-.1-1.7-.2-.2-.1-.5.1-.5.3-.1.2.1.5.3.5.6.2 1.2.2 1.9.2.6 0 1.2-.1 1.8-.2.2-.1.4-.3.3-.5C34 35.2 33.8 35 33.6 35.1z"/></g></svg>