<svg xmlns="http://www.w3.org/2000/svg" data-name="Layer 2" viewBox="0 0 100 100"><g data-name="&lt;Group&gt;"><path fill="#999" d="M50 43a59 59 0 0 0 6.25-.43c3.13-.33 6.09-.64 8.49.07a2 2 0 0 0 2-.47c-.08.19-.15.38-.24.57-3.4 7.38-9.71 11.95-16.5 11.95s-13.07-4.55-16.43-11.88c-.09-.2-.17-.4-.25-.6a2 2 0 0 0 1.93.46c2.41-.71 5.37-.4 8.5-.07A59 59 0 0 0 50 43zm3.39 3.3a2 2 0 0 0-2-2h-2.78a2 2 0 0 0 0 4h2.78a2 2 0 0 0 2-1.97zm13.19-36.09a2.34 2.34 0 0 1-.47 1.4h-2.54l-.31-.23c-.34-.27-.69-.53-1-.79l-.34-.25v-.13a2.35 2.35 0 1 1 4.7 0zm-9.97 1.4H43.53a66.56 66.56 0 0 1 6.56-3.55 63.76 63.76 0 0 1 6.52 3.55zm16.51 5.63v1.08a1.63 1.63 0 0 1-1.62 1.62h-43a1.62 1.62 0 0 1-1.62-1.62v-1.08a1.62 1.62 0 0 1 1.62-1.63h43a1.63 1.63 0 0 1 1.62 1.63z"/><path fill="#f9d4b2" d="M72.69 28.43a5.13 5.13 0 0 1-.21 8 32.59 32.59 0 0 0 .41-5.14.76.76 0 0 0 0-.15zm-45.38.01-.2 2.69v.15a32.59 32.59 0 0 0 .41 5.14 5.12 5.12 0 0 1-.21-8zm14.2 1.12a2.79 2.79 0 1 0 2.79 2.78 2.78 2.78 0 0 0-2.79-2.78zM50 39a52.78 52.78 0 0 1-5.81-.41 29.69 29.69 0 0 0-8.87-.07l-4-4a28.51 28.51 0 0 1-.19-3.21l.42-5.9a7.48 7.48 0 0 1 .22-1.46H50v.31H38.29a2 2 0 1 0 0 4H48v7.86a2 2 0 0 0 2 2zm8.48-9.44a2.79 2.79 0 1 0 2.79 2.78 2.78 2.78 0 0 0-2.79-2.78zM50 23.94h18.24a7.38 7.38 0 0 1 .22 1.45l.43 5.91a28.51 28.51 0 0 1-.19 3.21l-4 4a29.76 29.76 0 0 0-8.88.07A53 53 0 0 1 50 39v-.92a2 2 0 0 0 2-2v-9.83a2 2 0 0 0-2-2zm7.09 4.31h2.79a2 2 0 0 0 0-4h-2.79a2 2 0 0 0 0 4z"/><path fill="#febcae" d="M46.52 58.36c-.88 1.33-2 3-3.07 4.44a42.84 42.84 0 0 1-8.08-4.92l1.19-4.42a21 21 0 0 0 9.96 4.9zm16.94-4.92 1.2 4.44a43 43 0 0 1-8.08 4.92c-1.09-1.49-2.19-3.11-3.07-4.44a21 21 0 0 0 9.95-4.92zm13.17 23.78v14.92H68.9v-30a18.68 18.68 0 0 1 7.73 15.08zM64.9 62.64v29.5H52V63.26a97.32 97.32 0 0 0 2.29 3.18 2 2 0 0 0 1.59.79 1.93 1.93 0 0 0 .67-.12 38.63 38.63 0 0 0 8.35-4.47zm-16.9.67v28.83H35.1V62.62a38.45 38.45 0 0 0 8.38 4.49 1.89 1.89 0 0 0 .67.12 2 2 0 0 0 1.59-.79c.74-.98 1.52-2.07 2.26-3.13zm-16.9-1.15v30h-7.73V77.22a18.68 18.68 0 0 1 7.73-15.06z"/><path fill="#634" d="M80.63 77.22v16.92a2 2 0 0 1-2 2H21.37a2 2 0 0 1-2-2V77.22a22.7 22.7 0 0 1 12-19.94l2-7.22a27.52 27.52 0 0 1-3.4-5.58 29.85 29.85 0 0 1-1.26-3.22 9.12 9.12 0 0 1-1.3-17.43 5.62 5.62 0 0 1-4.5-5.51v-1.08a5.63 5.63 0 0 1 5.62-5.63h8A65.33 65.33 0 0 1 49.31 4a2.06 2.06 0 0 1 1.58 0 67.83 67.83 0 0 1 7.41 4 6.35 6.35 0 0 1 12.28 2.26 6.46 6.46 0 0 1-.16 1.4h1.08a5.63 5.63 0 0 1 5.62 5.63v1.08a5.62 5.62 0 0 1-4.49 5.5 9.13 9.13 0 0 1-1.3 17.44 30.21 30.21 0 0 1-1.24 3.17 27.93 27.93 0 0 1-3.4 5.52l2 7.26a22.68 22.68 0 0 1 11.94 19.96Zm-4 14.92V77.22a18.68 18.68 0 0 0-7.73-15.06v30Zm-3.51-73.82v-1.08a1.63 1.63 0 0 0-1.62-1.63h-43a1.62 1.62 0 0 0-1.62 1.63v1.08a1.62 1.62 0 0 0 1.62 1.62h43a1.63 1.63 0 0 0 1.62-1.62Zm1.38 14a5.16 5.16 0 0 0-1.81-3.91l.19 2.7a.76.76 0 0 1 0 .15 32.59 32.59 0 0 1-.41 5.14 5.12 5.12 0 0 0 2.03-4.06Zm-5.61-1-.43-5.91a7.38 7.38 0 0 0-.22-1.45H31.75a7.48 7.48 0 0 0-.22 1.46l-.42 5.9a28.51 28.51 0 0 0 .19 3.21l4 4a29.69 29.69 0 0 1 8.87.07A52.78 52.78 0 0 0 50 39a53 53 0 0 0 5.82-.41 29.76 29.76 0 0 1 8.88-.07l4-4a28.51 28.51 0 0 0 .19-3.17Zm-2.44 11.45c.09-.19.16-.38.24-.57a2 2 0 0 1-2 .47c-2.4-.71-5.36-.4-8.49-.07a59 59 0 0 1-6.2.4 59 59 0 0 1-6.25-.43c-3.13-.33-6.09-.64-8.5.07a2 2 0 0 1-1.93-.46c.08.2.16.4.25.6 3.36 7.36 9.65 11.91 16.43 11.91s13.1-4.57 16.45-11.92Zm-.34-31.16a2.35 2.35 0 1 0-4.23-1.4v.13l.34.25c.35.26.7.52 1 .79l.31.23ZM64.9 92.14v-29.5a38.63 38.63 0 0 1-8.35 4.47 1.93 1.93 0 0 1-.67.12 2 2 0 0 1-1.59-.79c-.75-1-1.54-2.1-2.29-3.18v28.88Zm-.24-34.26-1.2-4.44a21 21 0 0 1-10 4.92c.88 1.33 2 3 3.07 4.44a43 43 0 0 0 8.13-4.92ZM43.53 11.61h13.08a63.76 63.76 0 0 0-6.52-3.55 66.56 66.56 0 0 0-6.56 3.55ZM48 92.14V63.31c-.74 1.06-1.52 2.15-2.26 3.13a2 2 0 0 1-1.59.79 1.89 1.89 0 0 1-.67-.12 38.45 38.45 0 0 1-8.38-4.49v29.52ZM43.45 62.8c1.08-1.49 2.19-3.11 3.07-4.44a21 21 0 0 1-10-4.9l-1.19 4.42a42.84 42.84 0 0 0 8.12 4.92ZM31.1 92.14v-30a18.68 18.68 0 0 0-7.73 15.06v14.94Zm-4-61 .2-2.69a5.12 5.12 0 0 0 .21 8 32.59 32.59 0 0 1-.41-5.14Z"/><path fill="#634" d="M59.88 24.25a2 2 0 0 1 0 4h-2.79a2 2 0 0 1 0-4zm-1.4 5.31a2.79 2.79 0 1 1-2.78 2.78 2.78 2.78 0 0 1 2.78-2.78zm-7.09 14.77a2 2 0 0 1 0 4h-2.78a2 2 0 0 1 0-4zM52 26.25v9.86a2 2 0 0 1-4 0v-7.86h-9.71a2 2 0 1 1 0-4H50a2 2 0 0 1 2 2z"/><path fill="#634" d="M41.51 29.56a2.79 2.79 0 1 1-2.78 2.78 2.78 2.78 0 0 1 2.78-2.78Z"/></g></svg>